<svg width="70" height="80" viewBox="0 0 70 80" fill="none" xmlns="http://www.w3.org/2000/svg"><path d="M20 0C22.7656 0 25 2.23438 25 5V10H45V5C45 2.23438 47.2344 0 50 0C52.7656 0 55 2.23438 55 5V10H62.5C66.6406 10 70 13.3594 70 17.5V25H0V17.5C0 13.3594 3.35938 10 7.5 10H15V5C15 2.23438 17.2344 0 20 0ZM0 30H70V72.5C70 76.6406 66.6406 80 62.5 80H7.5C3.35938 80 0 76.6406 0 72.5V30ZM10 42.5V47.5C10 48.875 11.125 50 12.5 50H17.5C18.875 50 20 48.875 20 47.5V42.5C20 41.125 18.875 40 17.5 40H12.5C11.125 40 10 41.125 10 42.5ZM30 42.5V47.5C30 48.875 31.125 50 32.5 50H37.5C38.875 50 40 48.875 40 47.5V42.5C40 41.125 38.875 40 37.5 40H32.5C31.125 40 30 41.125 30 42.5ZM52.5 40C51.125 40 50 41.125 50 42.5V47.5C50 48.875 51.125 50 52.5 50H57.5C58.875 50 60 48.875 60 47.5V42.5C60 41.125 58.875 40 57.5 40H52.5ZM10 62.5V67.5C10 68.875 11.125 70 12.5 70H17.5C18.875 70 20 68.875 20 67.5V62.5C20 61.125 18.875 60 17.5 60H12.5C11.125 60 10 61.125 10 62.5ZM32.5 60C31.125 60 30 61.125 30 62.5V67.5C30 68.875 31.125 70 32.5 70H37.5C38.875 70 40 68.875 40 67.5V62.5C40 61.125 38.875 60 37.5 60H32.5ZM50 62.5V67.5C50 68.875 51.125 70 52.5 70H57.5C58.875 70 60 68.875 60 67.5V62.5C60 61.125 58.875 60 57.5 60H52.5C51.125 60 50 61.125 50 62.5Z" fill="black"/></svg>