<svg width="68" height="90" viewBox="0 0 68 90" fill="none" xmlns="http://www.w3.org/2000/svg"><path d="M33.75 0C26.4023 0 20.1445 4.69336 17.8418 11.25H11.25C5.04492 11.25 0 16.2949 0 22.5V78.75C0 84.9551 5.04492 90 11.25 90H56.25C62.4551 90 67.5 84.9551 67.5 78.75V22.5C67.5 16.2949 62.4551 11.25 56.25 11.25H49.6582C47.3555 4.69336 41.0977 0 33.75 0ZM33.75 11.25C35.2418 11.25 36.6726 11.8426 37.7275 12.8975C38.7824 13.9524 39.375 15.3832 39.375 16.875C39.375 18.3668 38.7824 19.7976 37.7275 20.8525C36.6726 21.9074 35.2418 22.5 33.75 22.5C32.2582 22.5 30.8274 21.9074 29.7725 20.8525C28.7176 19.7976 28.125 18.3668 28.125 16.875C28.125 15.3832 28.7176 13.9524 29.7725 12.8975C30.8274 11.8426 32.2582 11.25 33.75 11.25ZM53.6133 47.9883L31.1133 70.4883C29.4609 72.1406 26.7891 72.1406 25.1543 70.4883L13.8867 59.2383C12.2344 57.5859 12.2344 54.9141 13.8867 53.2793C15.5391 51.6445 18.2109 51.627 19.8457 53.2793L28.1074 61.541L47.6367 42.0117C49.2891 40.3594 51.9609 40.3594 53.5957 42.0117C55.2305 43.6641 55.248 46.3359 53.5957 47.9707L53.6133 47.9883Z" fill="black"/></svg>