<svg width="35" height="28" viewBox="0 0 35 28" fill="none" xmlns="http://www.w3.org/2000/svg"><path d="M3.88889 0C1.74392 0 0 2.0884 0 4.65707V23.2853C0 25.854 1.74392 27.9424 3.88889 27.9424H31.1111C33.2561 27.9424 35 25.854 35 23.2853V4.65707C35 2.0884 33.2561 0 31.1111 0H3.88889ZM7.77778 23.2853H3.88889V18.6283C6.03385 18.6283 7.77778 20.7167 7.77778 23.2853ZM3.88889 9.31413V4.65707H7.77778C7.77778 7.22573 6.03385 9.31413 3.88889 9.31413ZM27.2222 23.2853C27.2222 20.7167 28.9661 18.6283 31.1111 18.6283V23.2853H27.2222ZM31.1111 9.31413C28.9661 9.31413 27.2222 7.22573 27.2222 4.65707H31.1111V9.31413ZM17.5 6.9856C19.0471 6.9856 20.5308 7.72158 21.6248 9.03163C22.7188 10.3417 23.3333 12.1185 23.3333 13.9712C23.3333 15.8239 22.7188 17.6007 21.6248 18.9108C20.5308 20.2208 19.0471 20.9568 17.5 20.9568C15.9529 20.9568 14.4692 20.2208 13.3752 18.9108C12.2812 17.6007 11.6667 15.8239 11.6667 13.9712C11.6667 12.1185 12.2812 10.3417 13.3752 9.03163C14.4692 7.72158 15.9529 6.9856 17.5 6.9856Z" fill="#A91D3A"/></svg>
