<svg width="35" height="34" viewBox="0 0 35 34" fill="none" xmlns="http://www.w3.org/2000/svg"><path d="M4.37582 3.14352C4.37582 2.30981 4.65238 1.51024 5.14466 0.920715C5.63695 0.331191 6.30463 0 7.00082 0C7.69701 0 8.36469 0.331191 8.85698 0.920715C9.34926 1.51024 9.62582 2.30981 9.62582 3.14352C9.62582 3.97723 9.34926 4.7768 8.85698 5.36632C8.36469 5.95585 7.69701 6.28704 7.00082 6.28704C6.30463 6.28704 5.63695 5.95585 5.14466 5.36632C4.65238 4.7768 4.37582 3.97723 4.37582 3.14352ZM7.87582 15.8289V20.0923L10.6649 23.4323C11.0532 23.8973 11.3102 24.4932 11.3977 25.1416L12.2289 31.0946C12.3875 32.2342 11.7422 33.3147 10.7907 33.5047C9.8391 33.6946 8.93676 32.9218 8.77816 31.7823L7.99613 26.1567L3.65394 20.9568C2.99769 20.1709 2.62582 19.1034 2.62582 17.9901V12.2204C2.62582 10.0986 4.05863 8.38272 5.83051 8.38272C7.14848 8.38272 8.37348 9.1686 9.10629 10.4784L11.6985 15.1347L12.2508 15.4622V10.4784C12.2508 9.31922 13.0329 8.38272 14.0008 8.38272H21.0008C21.9688 8.38272 22.7508 9.31922 22.7508 10.4784V15.4687L23.3032 15.1413L25.8954 10.4784C26.6227 9.1686 27.8532 8.38272 29.1711 8.38272C30.943 8.38272 32.3758 10.0986 32.3758 12.2204V17.9901C32.3758 19.1034 32.0094 20.1709 31.3532 20.9568L27.011 26.1567L26.2289 31.7823C26.0704 32.9218 25.168 33.6946 24.2164 33.5047C23.2649 33.3147 22.6196 32.2342 22.7782 31.0946L23.6094 25.1416C23.6969 24.4932 23.9539 23.8973 24.3422 23.4323L27.1313 20.0923V15.8289L26.0922 17.6954C25.8407 18.1538 25.4907 18.5206 25.0805 18.7629L21.8211 20.7145C21.6899 20.7996 21.5532 20.8586 21.4055 20.8979C21.2633 20.9371 21.1157 20.9568 20.9735 20.9502H14.0391C13.9024 20.9568 13.7657 20.9371 13.6289 20.9044C13.4704 20.8651 13.3227 20.7996 13.186 20.7079L9.93207 18.7563C9.52191 18.514 9.17738 18.1407 8.92035 17.6888L7.88129 15.8224L7.87582 15.8289ZM0.1266 30.6559L2.74066 22.8298L5.43129 26.0519L3.37504 32.208C3.0141 33.282 1.99691 33.8059 1.10004 33.3737C0.203163 32.9415 -0.234337 31.7299 0.1266 30.6559ZM28.0008 0C28.697 0 29.3647 0.331191 29.857 0.920715C30.3493 1.51024 30.6258 2.30981 30.6258 3.14352C30.6258 3.97723 30.3493 4.7768 29.857 5.36632C29.3647 5.95585 28.697 6.28704 28.0008 6.28704C27.3046 6.28704 26.6369 5.95585 26.1447 5.36632C25.6524 4.7768 25.3758 3.97723 25.3758 3.14352C25.3758 2.30981 25.6524 1.51024 26.1447 0.920715C26.6369 0.331191 27.3046 0 28.0008 0ZM32.261 22.8298L34.875 30.6559C35.236 31.7299 34.7985 32.948 33.9016 33.3802C33.0047 33.8125 31.9875 33.2886 31.6266 32.2145L29.5704 26.0585L32.261 22.8364V22.8298Z" fill="#A91D3A"/></svg>