<svg width="35" height="29" viewBox="0 0 35 42" fill="none" xmlns="http://www.w3.org/2000/svg">
<path d="M11.272 2.01557C10.7456 0.492999 9.35799 -0.317404 8.03187 0.116448L2.01651 2.08106C0.827112 2.47398 0 3.76735 0 5.24081C0 25.4927 13.7123 41.9136 30.6236 41.9136C31.8541 41.9136 32.9341 40.9231 33.2622 39.4987L34.9028 32.2952C35.265 30.7071 34.5883 29.0454 33.3169 28.4151L26.7547 25.1407C25.6405 24.5841 24.3485 24.9688 23.5898 26.0903L20.8282 30.1259C16.0159 27.4 12.1196 22.7341 9.84332 16.9712L13.2133 13.6723C14.1498 12.7555 14.471 11.2165 14.0062 9.88221L11.272 2.02376V2.01557Z" fill="#A91D3A"/>
</svg>
