<svg width="79" height="57" viewBox="0 0 79 57" fill="none" xmlns="http://www.w3.org/2000/svg"><path d="M7.875 16.6875C7.875 7.98809 14.9256 0.9375 23.625 0.9375H55.125C63.8244 0.9375 70.875 7.98809 70.875 16.6875V20.8219C66.3838 21.7324 63 25.7068 63 30.4688V36.375H15.75V30.4688C15.75 25.7068 12.3662 21.7324 7.875 20.8219V16.6875ZM66.9375 30.4688C66.9375 27.8971 68.5863 25.7068 70.875 24.8947C71.4902 24.6732 72.1547 24.5625 72.8438 24.5625C76.1045 24.5625 78.75 27.208 78.75 30.4688V52.125C78.75 54.3029 76.9904 56.0625 74.8125 56.0625H70.875C68.6971 56.0625 66.9375 54.3029 66.9375 52.125H11.8125C11.8125 54.3029 10.0529 56.0625 7.875 56.0625H3.9375C1.75957 56.0625 0 54.3029 0 52.125V30.4688C0 27.208 2.64551 24.5625 5.90625 24.5625C6.59531 24.5625 7.25977 24.6855 7.875 24.8947C10.1637 25.7068 11.8125 27.8971 11.8125 30.4688V36.375V40.3125H15.75H63H66.9375V36.375V30.4688Z" fill="black"/></svg>