<svg width="35" height="29" viewBox="0 0 35 30" fill="none" xmlns="http://www.w3.org/2000/svg">
<path d="M3.9375 4.02071C3.9375 3.04804 4.26016 2.11522 4.83449 1.42744C5.40882 0.739661 6.18777 0.353271 7 0.353271C7.81223 0.353271 8.59118 0.739661 9.16551 1.42744C9.73984 2.11522 10.0625 3.04804 10.0625 4.02071C10.0625 4.99337 9.73984 5.9262 9.16551 6.61398C8.59118 7.30176 7.81223 7.68815 7 7.68815C6.18777 7.68815 5.40882 7.30176 4.83449 6.61398C4.26016 5.9262 3.9375 4.99337 3.9375 4.02071ZM3.5 14.3485C2.95312 15.082 2.625 16.0578 2.625 17.1187C2.625 18.1796 2.95312 19.1554 3.5 19.8889V14.3485ZM11.3969 11.1198C9.77266 12.8422 8.75 15.3636 8.75 18.1665C8.75 20.4128 9.40625 22.4758 10.5 24.0934V25.5014C10.5 26.6606 9.71797 27.5971 8.75 27.5971H5.25C4.28203 27.5971 3.5 26.6606 3.5 25.5014V23.7463C1.43281 22.5675 0 20.0461 0 17.1187C0 13.0649 2.73984 9.78383 6.125 9.78383H7.875C9.1875 9.78383 10.4016 10.275 11.3969 11.1133V11.1198ZM24.5 25.5014V24.0934C25.5938 22.4758 26.25 20.4128 26.25 18.1665C26.25 15.3636 25.2273 12.8422 23.6031 11.1133C24.5984 10.275 25.8125 9.78383 27.125 9.78383H28.875C32.2602 9.78383 35 13.0649 35 17.1187C35 20.0461 33.5672 22.5675 31.5 23.7463V25.5014C31.5 26.6606 30.718 27.5971 29.75 27.5971H26.25C25.282 27.5971 24.5 26.6606 24.5 25.5014ZM24.9375 4.02071C24.9375 3.04804 25.2602 2.11522 25.8345 1.42744C26.4088 0.739661 27.1878 0.353271 28 0.353271C28.8122 0.353271 29.5912 0.739661 30.1655 1.42744C30.7398 2.11522 31.0625 3.04804 31.0625 4.02071C31.0625 4.99337 30.7398 5.9262 30.1655 6.61398C29.5912 7.30176 28.8122 7.68815 28 7.68815C27.1878 7.68815 26.4088 7.30176 25.8345 6.61398C25.2602 5.9262 24.9375 4.99337 24.9375 4.02071ZM31.5 14.3485V19.8955C32.0469 19.1554 32.375 18.1862 32.375 17.1253C32.375 16.0643 32.0469 15.0885 31.5 14.355V14.3485ZM17.5 0.353271C18.4283 0.353271 19.3185 0.79486 19.9749 1.58089C20.6313 2.36692 21 3.43301 21 4.54463C21 5.65625 20.6313 6.72234 19.9749 7.50837C19.3185 8.2944 18.4283 8.73599 17.5 8.73599C16.5717 8.73599 15.6815 8.2944 15.0251 7.50837C14.3687 6.72234 14 5.65625 14 4.54463C14 3.43301 14.3687 2.36692 15.0251 1.58089C15.6815 0.79486 16.5717 0.353271 17.5 0.353271ZM13.125 18.1665C13.125 19.2275 13.4531 20.1967 14 20.9368V15.3963C13.4531 16.1364 13.125 17.1056 13.125 18.1665ZM21 15.3963V20.9433C21.5469 20.2033 21.875 19.234 21.875 18.1731C21.875 17.1122 21.5469 16.1364 21 15.4029V15.3963ZM24.5 18.1665C24.5 21.0939 23.0672 23.6153 21 24.7941V27.5971C21 28.7563 20.218 29.6928 19.25 29.6928H15.75C14.782 29.6928 14 28.7563 14 27.5971V24.7941C11.9328 23.6153 10.5 21.0939 10.5 18.1665C10.5 14.1127 13.2398 10.8317 16.625 10.8317H18.375C21.7602 10.8317 24.5 14.1127 24.5 18.1665Z" fill="#A91D3A"/>
</svg>
