<svg width="78" height="78" viewBox="0 0 78 78" fill="none" xmlns="http://www.w3.org/2000/svg"><g clip-path="url(#clip0_54_43)"><path d="M0 12.1875C0 5.45391 5.45391 0 12.1875 0H65.8125C72.5461 0 78 5.45391 78 12.1875V56.0625C78 60.0539 76.0805 63.5883 73.125 65.8125V73.125C73.125 75.8215 70.9465 78 68.25 78H63.375C60.6785 78 58.5 75.8215 58.5 73.125V68.25H19.5V73.125C19.5 75.8215 17.3215 78 14.625 78H9.75C7.05352 78 4.875 75.8215 4.875 73.125V65.8125C1.91953 63.5883 0 60.0539 0 56.0625V12.1875ZM19.7895 23.1867L17.0625 34.125H60.9375L58.2105 23.1867C57.6621 21.0234 55.7121 19.5 53.4727 19.5H24.5273C22.2879 19.5 20.3379 21.0234 19.8047 23.1867H19.7895ZM19.5 48.75C19.5 47.4571 18.9864 46.2171 18.0721 45.3029C17.1579 44.3886 15.9179 43.875 14.625 43.875C13.3321 43.875 12.0921 44.3886 11.1779 45.3029C10.2636 46.2171 9.75 47.4571 9.75 48.75C9.75 50.0429 10.2636 51.2829 11.1779 52.1971C12.0921 53.1114 13.3321 53.625 14.625 53.625C15.9179 53.625 17.1579 53.1114 18.0721 52.1971C18.9864 51.2829 19.5 50.0429 19.5 48.75ZM63.375 53.625C64.6679 53.625 65.9079 53.1114 66.8221 52.1971C67.7364 51.2829 68.25 50.0429 68.25 48.75C68.25 47.4571 67.7364 46.2171 66.8221 45.3029C65.9079 44.3886 64.6679 43.875 63.375 43.875C62.0821 43.875 60.8421 44.3886 59.9279 45.3029C59.0136 46.2171 58.5 47.4571 58.5 48.75C58.5 50.0429 59.0136 51.2829 59.9279 52.1971C60.8421 53.1114 62.0821 53.625 63.375 53.625Z" fill="black"/></g><defs><clipPath id="clip0_54_43"><rect width="78" height="78" fill="white"/></clipPath></defs></svg>